HIERARCHY
ROOT joint_Root
{
	OFFSET 0.0 0.0 0.0
	CHANNELS 6 Xposition Yposition Zposition Zrotation Xrotation Yrotation 
	JOINT Hips
	{
		OFFSET 4.5925 91.4895 -427.239
		CHANNELS 6 Xposition Yposition Zposition Zrotation Xrotation Yrotation 
		JOINT Spine
		{
			OFFSET 15.7357 0.0 0.0
			CHANNELS 6 Xposition Yposition Zposition Zrotation Xrotation Yrotation 
			JOINT Chest
			{
				OFFSET 8.98455 -0.406207 0.0
				CHANNELS 6 Xposition Yposition Zposition Zrotation Xrotation Yrotation 
				JOINT Neck
				{
					OFFSET 16.3773 0.0 0.0
					CHANNELS 6 Xposition Yposition Zposition Zrotation Xrotation Yrotation 
					JOINT Head
					{
						OFFSET 6.45672 0.0 0.0
						CHANNELS 6 Xposition Yposition Zposition Zrotation Xrotation Yrotation 
						End Site
						{
							OFFSET 0.0 0.0 0.0
						}
					}
				}
				JOINT Shoulder_L
				{
					OFFSET 12.9942 -0.242716 4.98039
					CHANNELS 6 Xposition Yposition Zposition Zrotation Xrotation Yrotation 
					JOINT UpperArm_L
					{
						OFFSET 5.34809 0.0 0.0
						CHANNELS 6 Xposition Yposition Zposition Zrotation Xrotation Yrotation 
						JOINT LowerArm_L
						{
							OFFSET 24.3286 1.87007e-05 0.0
							CHANNELS 6 Xposition Yposition Zposition Zrotation Xrotation Yrotation 
							JOINT Hand_L
							{
								OFFSET 22.2916 0.0 0.0
								CHANNELS 6 Xposition Yposition Zposition Zrotation Xrotation Yrotation 
								End Site
								{
									OFFSET 0.0 0.0 0.0
								}
							}
						}
					}
				}
				JOINT Shoulder_R
				{
					OFFSET 12.9945 -0.242716 -4.98039
					CHANNELS 6 Xposition Yposition Zposition Zrotation Xrotation Yrotation 
					JOINT UpperArm_R
					{
						OFFSET -5.34813 0.0 0.0
						CHANNELS 6 Xposition Yposition Zposition Zrotation Xrotation Yrotation 
						JOINT LowerArm_R
						{
							OFFSET -24.3289 0.000322201 0.0
							CHANNELS 6 Xposition Yposition Zposition Zrotation Xrotation Yrotation 
							JOINT Hand_R
							{
								OFFSET -22.2915 -0.000108084 0.0
								CHANNELS 6 Xposition Yposition Zposition Zrotation Xrotation Yrotation 
								End Site
								{
									OFFSET 0.0 0.0 0.0
								}
							}
						}
					}
				}
			}
		}
		JOINT UpperLeg_L
		{
			OFFSET -2.19248 -6.46944 0.0
			CHANNELS 6 Xposition Yposition Zposition Zrotation Xrotation Yrotation 
			JOINT LowerLeg_L
			{
				OFFSET 39.0811 0.0 -1.23785e-05
				CHANNELS 6 Xposition Yposition Zposition Zrotation Xrotation Yrotation 
				JOINT Foot_L
				{
					OFFSET 40.9854 0.0 -1.26872e-05
					CHANNELS 6 Xposition Yposition Zposition Zrotation Xrotation Yrotation 
					JOINT Toes_L
					{
						OFFSET 11.7543 0.0 0.0
						CHANNELS 6 Xposition Yposition Zposition Zrotation Xrotation Yrotation 
						End Site
						{
							OFFSET 0.0 0.0 0.0
						}
					}
				}
			}
		}
		JOINT UpperLeg_R
		{
			OFFSET -2.19251 6.46944 0.0
			CHANNELS 6 Xposition Yposition Zposition Zrotation Xrotation Yrotation 
			JOINT LowerLeg_R
			{
				OFFSET -39.0811 -0.00228153 -0.0401928
				CHANNELS 6 Xposition Yposition Zposition Zrotation Xrotation Yrotation 
				JOINT Foot_R
				{
					OFFSET -40.9854 0.0 0.0
					CHANNELS 6 Xposition Yposition Zposition Zrotation Xrotation Yrotation 
					JOINT Toes_R
					{
						OFFSET -11.7543 0.0 0.0
						CHANNELS 6 Xposition Yposition Zposition Zrotation Xrotation Yrotation 
						End Site
						{
							OFFSET 0.0 0.0 0.0
						}
					}
				}
			}
		}
	}
}
MOTION
Frames:	9
Frame Time:	0.0333333
0.000000 0.000000 0.000000 0.000000 0.000000 -0.000000 1.572420 89.334200 -523.174000 87.600800 -5.457640 0.814629 15.735700 0.000005 -0.000001 85.496600 81.112600 -85.485800 8.984550 -0.406207 -0.000000 9.956160 -1.386720 0.142286 16.377300 -0.000001 -0.000001 -0.453547 -1.572120 0.356404 6.456720 -0.000001 -0.000000 -4.079390 -0.201547 0.440300 12.994200 -0.242716 4.980390 -90.551400 1.962030 -74.299000 5.348090 -0.000007 -0.000001 -55.341400 32.315200 -31.112000 24.328600 0.000019 0.000005 9.060150 15.920000 -30.171300 22.291600 -0.000001 0.000005 13.758400 5.227170 2.028070 12.994500 -0.242716 -4.980390 88.389000 9.680340 -80.505000 -5.348130 -0.000001 -0.000004 -65.914900 25.239300 -6.512940 -24.328900 0.000322 -0.000009 0.683801 1.923450 -19.603200 -22.291500 -0.000108 -0.000004 15.916000 5.382630 -2.380870 -2.192480 -6.469440 -0.000000 -177.663000 -10.125800 -10.527400 39.081100 -0.000007 -0.000012 -0.400854 0.522023 37.521000 40.985400 -0.000006 -0.000013 -1.005820 -5.157960 -76.407900 11.754300 -0.000000 0.000003 -0.000246 -0.002205 -16.660200 -2.192510 6.469440 -0.000001 -178.652000 15.005900 155.343000 -39.081100 -0.002282 -0.040193 0.074099 -0.048332 55.709000 -40.985400 0.000008 0.000006 3.066920 -2.831600 -66.348000 -11.754300 -0.000006 -0.000006 -0.013740 -0.129730 -21.864200
0.000000 0.000000 0.000000 0.000000 0.000000 -0.000000 1.480960 89.605200 -521.544000 87.485400 -5.496010 0.151735 15.735700 0.000005 -0.000001 84.096400 81.212800 -83.975000 8.984550 -0.406207 -0.000000 9.720640 -1.794720 0.395241 16.377300 -0.000001 -0.000001 -0.782588 -1.645700 0.391009 6.456720 -0.000001 -0.000000 -4.355830 -0.287844 0.558592 12.994200 -0.242716 4.980390 -90.453300 1.623120 -74.395300 5.348090 -0.000007 -0.000001 -55.069900 32.454900 -31.042700 24.328600 0.000019 0.000005 9.091710 16.134700 -29.935300 22.291600 -0.000001 0.000005 13.684900 5.230810 1.934560 12.994500 -0.242716 -4.980390 88.415400 9.505740 -80.490900 -5.348130 -0.000001 -0.000004 -66.802300 24.972100 -5.061610 -24.328900 0.000322 -0.000009 0.740703 2.188550 -18.731600 -22.291500 -0.000108 -0.000004 15.330800 5.381830 -2.358850 -2.192480 -6.469440 -0.000000 -177.466000 -10.436000 -8.842400 39.081100 -0.000007 -0.000012 -0.380291 0.537193 35.296400 40.985400 -0.000006 -0.000013 -1.094100 -4.883050 -76.489200 11.754300 -0.000000 0.000003 -0.000269 -0.002375 -16.666400 -2.192510 6.469440 -0.000001 -177.109000 15.777100 153.908000 -39.081100 -0.002282 -0.040193 0.048642 -0.039540 48.941100 -40.985400 0.000008 0.000006 2.110920 -1.774050 -66.195000 -11.754300 -0.000006 -0.000006 -0.012849 -0.123818 -21.621800
0.000000 0.000000 0.000000 0.000000 0.000000 -0.000000 1.325550 89.704700 -519.837000 87.436900 -5.294860 -0.643328 15.735700 0.000005 -0.000001 82.558600 81.360900 -82.313800 8.984550 -0.406207 -0.000000 9.376590 -2.221700 0.671463 16.377300 -0.000001 -0.000001 -1.102130 -1.695580 0.351102 6.456720 -0.000001 -0.000000 -4.576390 -0.327175 0.637557 12.994200 -0.242716 4.980390 -90.407500 1.460040 -74.403600 5.348090 -0.000007 -0.000001 -55.014900 32.528700 -30.490800 24.328600 0.000019 0.000005 9.086960 16.088100 -29.991800 22.291600 -0.000001 0.000005 13.659000 5.231780 1.909340 12.994500 -0.242716 -4.980390 88.436200 9.404560 -80.515200 -5.348130 -0.000001 -0.000004 -67.465300 25.042800 -3.771760 -24.328900 0.000322 -0.000009 0.782026 2.403320 -18.059500 -22.291500 -0.000108 -0.000004 14.944300 5.378330 -2.250640 -2.192480 -6.469440 -0.000000 -177.307000 -10.414000 -7.503820 39.081100 -0.000007 -0.000012 -0.362619 0.547066 33.539000 40.985400 -0.000006 -0.000013 -1.313270 -4.697400 -76.835800 11.754300 -0.000000 0.000003 -0.000288 -0.002511 -16.671200 -2.192510 6.469440 -0.000001 -175.444000 16.911500 152.537000 -39.081100 -0.002282 -0.040193 0.030053 -0.029850 41.895900 -40.985400 0.000008 0.000006 1.548220 -0.388242 -65.334000 -11.754300 -0.000006 -0.000006 -0.012975 -0.124668 -21.656700
0.000000 0.000000 0.000000 0.000000 0.000000 -0.000000 1.036410 89.634800 -518.029000 87.264300 -5.070470 -1.362560 15.735700 0.000005 -0.000001 81.955100 81.477600 -81.516900 8.984550 -0.406207 -0.000000 9.126110 -2.367410 1.064840 16.377300 -0.000001 -0.000001 -1.361250 -1.771900 0.342147 6.456720 -0.000001 -0.000000 -4.874570 -0.403333 0.608214 12.994200 -0.242716 4.980390 -90.396600 1.425870 -74.454200 5.348090 -0.000007 -0.000001 -55.631000 32.144900 -29.370800 24.328600 0.000019 0.000005 9.229670 16.093900 -30.378000 22.291600 -0.000001 0.000005 13.765600 5.228250 2.000620 12.994500 -0.242716 -4.980390 88.446400 9.301190 -80.473800 -5.348130 -0.000001 -0.000004 -67.990700 25.097500 -2.861000 -24.328900 0.000322 -0.000009 0.887845 2.850470 -17.336500 -22.291500 -0.000108 -0.000004 14.710000 5.372010 -2.050130 -2.192480 -6.469440 -0.000000 -177.001000 -10.637200 -6.390850 39.081100 -0.000007 -0.000012 -0.280429 0.439572 32.536800 40.985400 -0.000006 -0.000013 -0.601039 -4.614230 -77.567200 11.754300 -0.000000 0.000003 -0.580176 -0.775975 -16.162800 -2.192510 6.469440 -0.000001 -173.789000 17.347000 151.269000 -39.081100 -0.002282 -0.040193 0.017318 -0.019159 36.213800 -40.985400 0.000008 0.000006 1.236900 2.581130 -63.873400 -11.754300 -0.000006 -0.000006 -0.012667 -0.122588 -21.571400
0.000000 0.000000 0.000000 0.000000 0.000000 -0.000000 0.634920 89.385800 -515.890000 87.135200 -4.596060 -1.753010 15.735700 0.000005 -0.000001 81.503800 81.480100 -80.858100 8.984550 -0.406207 -0.000000 9.107540 -2.496500 1.489380 16.377300 -0.000001 -0.000001 -1.411960 -1.818880 0.314406 6.456720 -0.000001 -0.000000 -5.200460 -0.426944 0.572772 12.994200 -0.242716 4.980390 -90.422300 1.520370 -74.473600 5.348090 -0.000007 -0.000001 -56.570900 31.478800 -27.870900 24.328600 0.000019 0.000005 9.275860 15.804200 -30.950200 22.291600 -0.000001 0.000005 13.881000 5.221280 2.180330 12.994500 -0.242716 -4.980390 88.453100 9.295520 -80.508600 -5.348130 -0.000001 -0.000004 -68.305300 25.156900 -2.376980 -24.328900 0.000322 -0.000009 0.796441 2.669740 -16.636800 -22.291500 -0.000108 -0.000004 14.596800 5.373510 -2.097980 -2.192480 -6.469440 -0.000000 -176.899000 -10.376100 -5.056790 39.081100 -0.000007 -0.000012 -0.009624 0.015334 32.115000 40.985400 -0.000006 -0.000013 1.977610 -5.419390 -78.723600 11.754300 -0.000000 0.000003 -1.672380 -2.217430 -15.237900 -2.192510 6.469440 -0.000001 -172.611000 16.544900 150.054000 -39.081100 -0.002282 -0.040193 0.017897 -0.020967 34.861700 -40.985400 0.000008 0.000006 5.337190 4.056980 -61.079600 -11.754300 -0.000006 -0.000006 -0.013055 -0.125203 -21.678600
0.000000 0.000000 0.000000 0.000000 0.000000 -0.000000 0.118772 88.976300 -513.158000 87.410000 -3.674660 -1.492010 15.735700 0.000005 -0.000001 80.940600 81.364400 -80.182000 8.984550 -0.406207 -0.000000 9.315800 -2.694150 1.735730 16.377300 -0.000001 -0.000001 -1.167310 -1.928600 0.310774 6.456720 -0.000001 -0.000000 -5.164150 -0.504714 0.414425 12.994200 -0.242716 4.980390 -90.482300 1.731060 -74.430200 5.348090 -0.000007 -0.000001 -57.447100 31.133400 -26.423700 24.328600 0.000019 0.000005 9.335310 15.821900 -31.087100 22.291600 -0.000001 0.000005 14.201400 5.213310 2.382780 12.994500 -0.242716 -4.980390 88.417900 9.402170 -80.403800 -5.348130 -0.000001 -0.000004 -68.445800 25.013600 -2.314410 -24.328900 0.000322 -0.000009 0.838772 2.975540 -15.770800 -22.291500 -0.000108 -0.000004 14.152300 5.362480 -1.766700 -2.192480 -6.469440 -0.000000 -176.455000 -9.625450 -3.914090 39.081100 -0.000007 -0.000012 -0.000354 0.000531 33.801400 40.985400 -0.000006 -0.000013 1.237160 -5.003950 -78.972100 11.754300 -0.000000 0.000003 -0.959012 -1.202110 -16.246500 -2.192510 6.469440 -0.000001 -173.121000 14.928300 150.502000 -39.081100 -0.002282 -0.040193 0.026055 -0.029868 37.319800 -40.985400 0.000008 0.000006 9.578980 2.252930 -60.938900 -11.754300 -0.000006 -0.000006 -0.009753 -0.101783 -20.719800
0.000000 0.000000 0.000000 0.000000 0.000000 -0.000000 -0.471448 88.597100 -510.217000 87.667900 -2.669120 -1.135830 15.735700 0.000005 -0.000001 80.937000 81.371500 -80.051800 8.984550 -0.406207 -0.000000 9.304670 -2.691420 1.988260 16.377300 -0.000001 -0.000001 -0.714387 -2.058020 0.225687 6.456720 -0.000001 -0.000000 -4.555520 -0.667985 0.320490 12.994200 -0.242716 4.980390 -90.552800 1.958530 -74.235600 5.348090 -0.000007 -0.000001 -58.418800 31.204400 -24.875500 24.328600 0.000019 0.000005 9.417540 16.216400 -30.707700 22.291600 -0.000001 0.000005 14.455300 5.204980 2.592630 12.994500 -0.242716 -4.980390 88.303100 9.828730 -80.154600 -5.348130 -0.000001 -0.000004 -68.136000 25.607200 -2.248920 -24.328900 0.000322 -0.000009 0.747193 2.743090 -15.263500 -22.291500 -0.000108 -0.000004 14.287800 5.349960 -1.375880 -2.192480 -6.469440 -0.000000 -175.925000 -8.600870 -3.882700 39.081100 -0.000007 -0.000012 0.004890 -0.006310 37.765200 40.985400 -0.000006 -0.000013 0.249892 -4.448130 -78.094400 11.754300 -0.000000 0.000003 -0.005315 -0.064491 -19.201000 -2.192510 6.469440 -0.000001 -174.063000 13.425500 151.648000 -39.081100 -0.002282 -0.040193 0.032392 -0.034351 40.283400 -40.985400 0.000008 0.000006 9.119900 -0.685407 -64.186800 -11.754300 -0.000006 -0.000006 -0.007711 -0.085655 -20.060700
0.000000 0.000000 0.000000 0.000000 0.000000 -0.000000 -1.042670 88.458200 -507.325000 88.093300 -1.923960 -0.419928 15.735700 0.000005 -0.000001 82.041000 81.255900 -81.094900 8.984550 -0.406207 -0.000000 9.580440 -2.392400 2.091500 16.377300 -0.000001 -0.000001 -0.233225 -2.233830 0.206689 6.456720 -0.000001 -0.000000 -4.210900 -0.895357 0.324879 12.994200 -0.242716 4.980390 -90.526900 1.839660 -74.013600 5.348090 -0.000007 -0.000001 -60.526400 30.709900 -23.157400 24.328600 0.000019 0.000005 9.116040 16.469200 -29.510100 22.291600 -0.000001 0.000005 14.300500 5.220230 2.206750 12.994500 -0.242716 -4.980390 88.258100 9.907210 -79.976000 -5.348130 -0.000001 -0.000004 -67.780700 26.001400 -2.884670 -24.328900 0.000322 -0.000009 0.671847 2.535940 -14.866200 -22.291500 -0.000108 -0.000004 14.117900 5.343500 -1.183000 -2.192480 -6.469440 -0.000000 -175.551000 -7.880500 -5.682250 39.081100 -0.000007 -0.000012 0.021252 -0.021449 44.732500 40.985400 -0.000006 -0.000013 -0.698994 -3.813990 -73.633500 11.754300 -0.000000 0.000003 -0.038998 -0.256102 -27.094300 -2.192510 6.469440 -0.000001 -174.910000 13.095400 153.572000 -39.081100 -0.002282 -0.040193 0.040103 -0.040612 42.204500 -40.985400 0.000008 0.000006 8.936800 -2.088270 -66.721400 -11.754300 -0.000006 -0.000006 -0.004088 -0.052349 -18.702600
0.000000 0.000000 0.000000 0.000000 0.000000 -0.000000 -1.495200 88.473800 -504.600000 88.814800 -1.153280 0.618236 15.735700 0.000005 -0.000001 83.430500 80.988000 -82.557300 8.984550 -0.406207 -0.000000 10.160400 -2.030520 1.925880 16.377300 -0.000001 -0.000001 0.183965 -2.499220 0.365249 6.456720 -0.000001 -0.000000 -4.135360 -1.177570 0.389264 12.994200 -0.242716 4.980390 -90.406300 1.408980 -73.912400 5.348090 -0.000007 -0.000001 -62.916100 30.347700 -21.588100 24.328600 0.000019 0.000005 8.520730 16.409800 -27.937900 22.291600 -0.000001 0.000005 14.032500 5.216290 2.307740 12.994500 -0.242716 -4.980390 88.337700 9.447600 -79.973700 -5.348130 -0.000001 -0.000004 -67.739300 26.108300 -3.815600 -24.328900 0.000322 -0.000009 0.726865 2.635710 -15.444000 -22.291500 -0.000108 -0.000004 14.126700 5.337020 -0.991498 -2.192480 -6.469440 -0.000000 -175.666000 -7.268310 -9.577530 39.081100 -0.000007 -0.000012 0.056762 -0.041237 53.999000 40.985400 -0.000006 -0.000013 -0.370209 -3.984890 -65.191000 11.754300 -0.000000 0.000003 -0.066989 -0.353859 -31.217600 -2.192510 6.469440 -0.000001 -176.112000 14.283400 156.366000 -39.081100 -0.002282 -0.040193 0.047269 -0.047179 43.002500 -40.985400 0.000008 0.000006 8.696800 -1.964110 -69.200800 -11.754300 -0.000006 -0.000006 -0.003250 -0.043400 -18.338200
